# xmcd CD database file
#
# Track frame offsets:
#	150
#	11845
#	24427
#	38112
#	50665
#	64042
#	76177
#	88881
#	102858
#	115179
#	128592
#	143204
#	157017
#	170324
#	185085
#	200383
#	213765
#	224721
#	238326
#	252387
#	263439
#	274900
#	288549
#	303557
#	316735
#	331952
#
# Disc length: 4597 seconds
#
# Revision: 0
# Processed by: cddbd v1.5PL3 Copyright (c) Steve Scherf et al.
# Submitted via: CDex 1.51
#
DISCID=8011f31a
DTITLE=Stan Getz - Melody Express 1948-52
DYEAR=1900
DGENRE=Jazz
TTITLE0=Pardon My Bop
TTITLE1=Interlude in Bebop
TTITLE2=As I Live and Bop
TTITLE3=Melody Express
TTITLE4=Yvette
TTITLE5=Potter's Luck
TTITLE6=The Song Is You
TTITLE7=Wildwood
TTITLE8=Stella By Starlight
TTITLE9=Time On My Hands
TTITLE10=Tis Autumn
TTITLE11=The Way You Look Tonight
TTITLE12=Lover Come Back To Me
TTITLE13=Body and Soul
TTITLE14=Stars Fell On Alabama
TTITLE15=You Turned the Tables On Me
TTITLE16=Lullaby Of Birdland
TTITLE17=Autumn Leaves
TTITLE18=Autumn Leaves (alternate take)
TTITLE19=Fools Rush In
TTITLE20=Fools Rush In (alternate take)
TTITLE21=These Foolish Things
TTITLE22=Thanks For the Memory
TTITLE23=Hymn Of the Orient
TTITLE24=These Foolish Things
TTITLE25=How Deep Is the Ocean
EXTD=
EXTT0=
EXTT1=
EXTT2=
EXTT3=
EXTT4=
EXTT5=
EXTT6=
EXTT7=
EXTT8=
EXTT9=
EXTT10=
EXTT11=
EXTT12=
EXTT13=
EXTT14=
EXTT15=
EXTT16=
EXTT17=
EXTT18=
EXTT19=
EXTT20=
EXTT21=
EXTT22=
EXTT23=
EXTT24=
EXTT25=
PLAYORDER=
